<svg width="280" height="280" viewBox="0 0 280 280" fill="none" xmlns="http://www.w3.org/2000/svg">
<g clip-path="url(#clip0_2386_128945)">
<path d="M143.39 30.404C97.7458 30.9483 69.5566 67.8855 55.2971 94.7234C37.5279 128.168 11.7296 195.68 33.9196 226.809C54.4155 255.562 79.3802 261.458 110.239 249.712C130.916 241.842 149.76 235.466 187.948 232.425C227.724 229.257 247.004 208.383 251.394 198.962C257.181 186.542 256.39 171.864 246.241 158.238C219.254 122.006 209.79 97.3251 204.068 80.6453C198.345 63.9655 184.864 29.9094 143.39 30.404Z" fill="url(#paint0_linear_2386_128945)"/>
<mask id="mask0_2386_128945" style="mask-type:alpha" maskUnits="userSpaceOnUse" x="25" y="30" width="233" height="226">
<path d="M143.39 30.404C97.7458 30.9483 69.5566 67.8855 55.2971 94.7234C37.5278 128.168 11.7296 195.68 33.9196 226.809C54.4155 255.562 79.3802 261.458 110.239 249.712C130.916 241.842 149.76 235.466 187.948 232.425C227.724 229.257 247.004 208.383 251.394 198.962C257.181 186.542 261.543 158.626 251.394 145C224.407 108.768 209.79 97.3251 204.068 80.6453C198.345 63.9655 184.864 29.9094 143.39 30.404Z" fill="url(#paint1_linear_2386_128945)"/>
</mask>
<g mask="url(#mask0_2386_128945)">
<path d="M0.0938543 143.161C0.0938543 143.161 -4.20502 108.519 45.3855 112.286C94.959 116.054 139.261 138.801 122.322 144.492C105.365 150.183 7.97512 156.307 0.0938543 143.161Z" fill="#B26B52"/>
<path d="M239.308 171.658C237.905 172.526 198.286 171.658 198.286 171.658V150.33C198.286 150.33 237.905 149.683 239.308 150.33C240.712 150.977 241.185 153.139 241.185 160.39C241.185 167.641 240.712 170.773 239.308 171.641V171.658Z" fill="#6E479C"/>
<path d="M227.404 180.135C226.001 181.65 186.382 180.135 186.382 180.135V142.994C186.382 142.994 226.001 141.871 227.404 142.994C228.808 144.118 229.281 147.896 229.281 160.526C229.281 173.156 228.808 178.62 227.404 180.135Z" fill="url(#paint2_linear_2386_128945)"/>
<path d="M208.318 136.781H225.65C225.65 136.781 250 136.713 250 161.292C250 184.475 226.783 185.054 226.783 185.054H207.591C207.591 185.054 209.316 179.488 206.746 177.037C204.175 174.586 188.483 176.373 188.483 161.956C188.483 146.501 204.006 148.101 206.83 144.611C209.654 141.122 208.335 136.781 208.335 136.781H208.318Z" fill="url(#paint3_linear_2386_128945)"/>
<path d="M210.511 184.179C210.511 184.179 210.85 182.228 210.511 180.407C210.139 178.365 209.04 177.343 207.299 176.424C205.557 175.505 190.372 174.756 190.558 160.867C190.744 146.415 205.286 147.062 207.671 145.581C210.055 144.101 210.021 143.318 210.613 141.598C211.255 139.743 210.511 137.571 210.511 137.571" stroke="url(#paint4_linear_2386_128945)" stroke-opacity="0.4" stroke-width="2" stroke-linecap="round" stroke-linejoin="round"/>
<path d="M210.36 185.224H-24.6133V136.577H210.36C210.36 136.577 211.104 139.505 210.461 141.377C209.819 143.249 209.286 144.31 207.468 145.428C205.033 146.926 190.237 146.279 190.051 160.986C189.865 175.692 204.464 175.071 207.096 176.816C208.872 177.752 210.005 178.79 210.377 180.867C210.715 182.739 210.377 185.207 210.377 185.207L210.36 185.224Z" fill="url(#paint5_linear_2386_128945)"/>
<path d="M46.186 139.714C46.186 139.714 47.4373 141.479 47.0653 146.773C47.0653 146.773 31.8976 147.164 32.4556 161.854C33.0136 176.543 47.5726 175.113 47.5726 175.113C47.5726 175.113 47.4373 181.718 46.186 185.36L-24.5967 185.241V136.594H44.0724L45.7464 138.643L46.186 139.714Z" fill="url(#paint6_linear_2386_128945)"/>
<path d="M47.0489 146.773H142.553C142.553 146.773 153.037 146.926 153.037 136.594H44.0391C44.0391 136.594 47.793 141.445 47.032 146.773H47.0489Z" fill="#DFE4D7"/>
<path d="M47.5567 175.113H143.061C143.061 175.113 153.545 174.96 153.545 185.292H44.5469C44.5469 185.292 48.3008 180.441 47.5398 175.113H47.5567Z" fill="#BBBCB7"/>
<path d="M57.3472 160.918C56.6878 166.705 52.6464 171.471 46.8634 171.471C41.0804 171.471 36.0076 167.692 36.3796 160.918C36.7009 155.096 41.0804 150.569 46.8634 150.364C52.2913 150.177 58.1082 154.33 57.3472 160.918Z" fill="#6E479C"/>
<path d="M171.93 161.003C171.24 167.034 167.018 172 160.975 172C154.932 172 149.631 168.062 150.02 161.003C150.356 154.937 154.932 150.219 160.975 150.006C166.647 149.811 172.725 154.139 171.93 161.003Z" fill="#6E479C"/>
<path d="M174.806 153.088H147.328C143.331 153.088 140.091 156.35 140.091 160.373V161.19C140.091 165.214 143.331 168.475 147.328 168.475H174.806C178.803 168.475 182.043 165.214 182.043 161.19V160.373C182.043 156.35 178.803 153.088 174.806 153.088Z" fill="url(#paint7_linear_2386_128945)"/>
<path d="M175.205 156H145.795C143.699 156 142 157.484 142 159.314V159.686C142 161.516 143.699 163 145.795 163H175.205C177.301 163 179 161.516 179 159.686V159.314C179 157.484 177.301 156 175.205 156Z" fill="url(#paint8_linear_2386_128945)"/>
<path d="M174.789 153.088H147.328C143.337 153.088 140.091 156.373 140.091 160.373V161.173C140.091 161.496 140.142 161.786 140.175 162.092C140.632 158.518 143.659 155.726 147.328 155.726H174.789C178.458 155.726 181.485 158.518 181.942 162.092C181.975 161.786 182.043 161.479 182.043 161.173V160.373C182.043 156.356 178.78 153.088 174.806 153.088H174.789Z" fill="#A2A4A6"/>
<path d="M216.211 161.377C215.551 167.165 211.51 171.931 205.727 171.931C199.944 171.931 194.871 168.152 195.243 161.377C195.564 155.556 199.944 151.028 205.727 150.824C211.155 150.637 216.971 154.79 216.211 161.377Z" fill="#6E479C"/>
<path d="M241.219 161.377C240.56 167.165 236.519 171.931 230.736 171.931C224.953 171.931 219.88 168.152 220.252 161.377C220.573 155.556 224.953 151.028 230.736 150.824C236.163 150.637 241.98 154.79 241.219 161.377Z" fill="#6E479C"/>
<path d="M231.48 150.807H205.727V171.931H231.48V150.807Z" fill="#6E479C"/>
<path d="M-210.611 299.578C-210.611 299.578 -130.864 232.854 -117.584 221.12C-104.304 209.387 -89.9105 179.391 -78.0142 157.263C-66.1179 135.134 -56.6346 114.397 -53.901 107.275C-51.1674 100.153 -41.1779 88.5721 -27.358 89.9794C-13.5549 91.3868 28.5292 85.9608 40.088 85.876C51.6468 85.7912 57.3503 80.5856 73.7182 87.8938C90.1874 95.2529 97.7808 99.1529 103.467 101.629C109.154 104.104 123.767 121.976 129.892 125.978C136.018 129.98 131.816 139.374 123.784 141.9C115.752 144.427 97.3083 136.745 88.2469 124.961C88.2469 124.961 71.204 126.029 55.511 117.025C55.511 117.025 37.1351 123.112 20.5984 131.607C8.98895 137.559 11.5032 153.668 17.1054 162.655C22.7076 171.642 32.3934 186.224 55.241 185.444C86.087 184.393 126.011 183.935 126.011 183.935C126.011 183.935 133.233 184.189 134.735 193.702C134.735 193.702 137.739 203.638 123.514 208.03C96.9371 216.254 102.337 214.796 76.9074 217.797C51.4781 220.798 20.0415 250.031 -3.8354 260.561C-27.7123 271.091 -46.2064 275.584 -46.2064 275.584L-147.131 375C-147.131 375 -167.633 367.488 -194.497 342.325C-221.36 317.179 -215.977 303.291 -210.628 299.544L-210.611 299.578Z" fill="#F7B089"/>
<path d="M114.017 112C112.64 113.398 111.263 116.995 119.983 126.779C129.162 136.097 132.388 132.892 133 130.252" stroke="url(#paint9_linear_2386_128945)" stroke-width="2" stroke-linecap="round" stroke-linejoin="round"/>
<path d="M134.733 193C134.733 193 137.757 202.975 123.438 207.384C96.6849 215.639 102.12 214.175 76.5225 217.188C50.9247 220.201 19.2799 249.547 -4.75525 260.118C-28.7904 270.689 -47.407 275.2 -47.407 275.2L-149 375" stroke="#D5816C" stroke-width="2"/>
<path d="M132.708 127.729C134.995 135.082 129.517 141.907 121.192 142.214C112.816 142.521 97.1506 136.009 88.1018 124.153C88.1018 124.153 70.5169 126.059 54.8749 117C54.8749 117 41.1932 124.066 22.1032 130.412C22.1032 130.412 13.9103 132.2 13.1444 142.589C13.1444 142.589 10.0833 160.911 32.1502 177.868C48.9578 188.976 74.619 183.668 100.453 183.668C126.288 183.668 126.335 183.668 126.335 183.668C126.335 183.668 135.439 183.668 134.983 193" stroke="#D4816C" stroke-width="2" stroke-linecap="round" stroke-linejoin="round"/>
<path d="M51 107C51 107 52.3147 113.575 54 117" stroke="#D4816C" stroke-width="2" stroke-linecap="round" stroke-linejoin="round"/>
<path d="M115.397 112C115.397 112 110.818 113.93 118.24 123.158C125.661 132.385 129.115 133.249 132.437 130.878C135.76 128.508 132.751 125.867 132.751 125.867L124.074 118.942L115.397 112.017V112Z" fill="#FFD6BA"/>
<path d="M131.276 187.113C131.276 187.113 127.138 184.609 117.512 187.113C111.732 188.884 111.289 192.176 111.304 197.38C111.32 202.584 108.296 209.825 120.98 205.86C133.623 202.904 135.105 196.042 134.995 193.346C134.817 189.022 131.276 187.113 131.276 187.113Z" stroke="url(#paint10_linear_2386_128945)" stroke-width="3" stroke-linecap="round" stroke-linejoin="round"/>
<path d="M131.276 187.113C131.276 187.113 127.138 184.609 117.512 187.113C111.732 188.884 111.289 192.176 111.304 197.38C111.32 202.584 108.296 209.825 120.98 205.86C133.623 202.904 135.105 196.042 134.995 193.346C134.817 189.022 131.276 187.113 131.276 187.113Z" fill="#FFD6BA"/>
</g>
<path d="M135 60C135 60 149 86.5 150.04 106.845" stroke="#83B03C" stroke-width="4" stroke-miterlimit="10" stroke-linecap="round"/>
<path d="M160.341 96.8447L150.881 111.285L136.811 101.365" stroke="#83B03C" stroke-width="5" stroke-miterlimit="10" stroke-linecap="round"/>
</g>
<defs>
<linearGradient id="paint0_linear_2386_128945" x1="48" y1="100" x2="260" y2="192" gradientUnits="userSpaceOnUse">
<stop stop-color="#EAEFDD"/>
<stop offset="1" stop-color="#F2F5E9"/>
</linearGradient>
<linearGradient id="paint1_linear_2386_128945" x1="48" y1="100" x2="260" y2="192" gradientUnits="userSpaceOnUse">
<stop stop-color="#EAEFDD"/>
<stop offset="1" stop-color="#F2F5E9"/>
</linearGradient>
<linearGradient id="paint2_linear_2386_128945" x1="207.84" y1="142.501" x2="207.84" y2="180.816" gradientUnits="userSpaceOnUse">
<stop stop-color="#BABFAF"/>
<stop offset="0.58" stop-color="#A8AD9E"/>
<stop offset="1" stop-color="#828880"/>
</linearGradient>
<linearGradient id="paint3_linear_2386_128945" x1="190.609" y1="160.918" x2="252.126" y2="160.918" gradientUnits="userSpaceOnUse">
<stop offset="0.23" stop-color="white" stop-opacity="0.5"/>
<stop offset="0.79" stop-color="#9E9E9E" stop-opacity="0.5"/>
</linearGradient>
<linearGradient id="paint4_linear_2386_128945" x1="200.704" y1="136.015" x2="200.704" y2="185.514" gradientUnits="userSpaceOnUse">
<stop stop-color="#929698"/>
<stop offset="1" stop-color="#5F6A75"/>
</linearGradient>
<linearGradient id="paint5_linear_2386_128945" x1="93.0592" y1="136.594" x2="93.0592" y2="185.224" gradientUnits="userSpaceOnUse">
<stop offset="0.23" stop-color="white"/>
<stop offset="0.78" stop-color="#D4D5C7"/>
</linearGradient>
<linearGradient id="paint6_linear_2386_128945" x1="11.471" y1="136.866" x2="11.471" y2="185.071" gradientUnits="userSpaceOnUse">
<stop stop-color="#BABFAF"/>
<stop offset="0.58" stop-color="#A8AD9E"/>
<stop offset="1" stop-color="#828880"/>
</linearGradient>
<linearGradient id="paint7_linear_2386_128945" x1="161.067" y1="153.088" x2="161.067" y2="168.475" gradientUnits="userSpaceOnUse">
<stop stop-color="#E3E8D5"/>
<stop offset="1" stop-color="#BDBCAA"/>
</linearGradient>
<linearGradient id="paint8_linear_2386_128945" x1="150" y1="164" x2="150" y2="156" gradientUnits="userSpaceOnUse">
<stop stop-color="white" stop-opacity="0"/>
<stop offset="1" stop-color="white"/>
</linearGradient>
<linearGradient id="paint9_linear_2386_128945" x1="115.777" y1="128.445" x2="129.421" y2="111.157" gradientUnits="userSpaceOnUse">
<stop offset="0.03" stop-color="#DD8360"/>
<stop offset="1" stop-color="#FFAD82"/>
</linearGradient>
<linearGradient id="paint10_linear_2386_128945" x1="113.83" y1="202.05" x2="126.759" y2="182.106" gradientUnits="userSpaceOnUse">
<stop offset="0.03" stop-color="#DD8360"/>
<stop offset="1" stop-color="#FFAD82"/>
</linearGradient>
<clipPath id="clip0_2386_128945">
<rect width="280" height="280" fill="white"/>
</clipPath>
</defs>
</svg>
