<svg width="25" height="24" viewBox="0 0 25 24" fill="none" xmlns="http://www.w3.org/2000/svg">
<path d="M12.002 15.5C14.212 15.5 16.002 13.71 16.002 11.5V6C16.002 3.79 14.212 2 12.002 2C9.79195 2 8.00195 3.79 8.00195 6V11.5C8.00195 13.71 9.79195 15.5 12.002 15.5Z" stroke="#684BAB" stroke-width="1.5" stroke-linecap="round" stroke-linejoin="round"/>
<path d="M4.35156 9.65039V11.3504C4.35156 15.5704 7.78156 19.0004 12.0016 19.0004C16.2216 19.0004 19.6516 15.5704 19.6516 11.3504V9.65039" stroke="#684BAB" stroke-width="1.5" stroke-linecap="round" stroke-linejoin="round"/>
<path d="M10.6123 6.43012C11.5123 6.10012 12.4923 6.10012 13.3923 6.43012" stroke="#684BAB" stroke-width="1.5" stroke-linecap="round" stroke-linejoin="round"/>
<path d="M11.2021 8.55031C11.7321 8.41031 12.2821 8.41031 12.8121 8.55031" stroke="#684BAB" stroke-width="1.5" stroke-linecap="round" stroke-linejoin="round"/>
<path d="M12.002 19V22" stroke="#684BAB" stroke-width="1.5" stroke-linecap="round" stroke-linejoin="round"/>
</svg>
